<?xml version="1.0" standalone="no"?>
<!DOCTYPE svg PUBLIC "-//W3C//DTD SVG 20010904//EN"
 "http://www.w3.org/TR/2001/REC-SVG-20010904/DTD/svg10.dtd">
<svg version="1.0" xmlns="http://www.w3.org/2000/svg"
 width="100%" height="100%" viewBox="280.8 351.65 300 300"
 preserveAspectRatio="xMidYMid meet">
<rect x="280.8" y="351.65" width="300" height="300" fill="#ffffff" rx="64" />
<g transform="translate(12.000000,1024.000000) scale(0.100000,-0.100000)"
fill="#000000" stroke="none">
<path d="M3462 6218 c-9 -9 -12 -115 -12 -416 l0 -405 58 6 c31 4 98 12 147
18 50 6 205 14 345 18 l255 6 5 147 c3 80 8 150 12 153 27 27 63 1 332 -241
195 -176 276 -254 276 -269 0 -15 -80 -93 -276 -268 -276 -247 -305 -267 -332
-234 -7 8 -13 72 -14 158 l-3 144 -137 -2 c-180 -3 -293 -27 -415 -88 -227
-115 -365 -326 -412 -635 -11 -68 -10 -76 6 -88 15 -10 155 -12 743 -9 795 4
775 3 915 66 166 76 290 222 330 393 51 215 -34 427 -220 550 l-64 42 54 58
c30 32 70 91 89 130 99 201 56 420 -114 590 -93 94 -201 151 -326 173 -107 19
-1223 22 -1242 3z"/>
</g>
</svg>
